<svg width="160" height="32" viewBox="0 0 160 32" fill="none" xmlns="http://www.w3.org/2000/svg">
<path d="M37.3379 28.6284V26.0841L56.7583 4.85914L58.4097 6.19825H37.47V3.52002H59.6648V6.03086L40.2443 27.2893L38.7581 25.9502H59.7639V28.6284H37.3379Z" fill="#1B2035"/>
<path d="M62.3377 3.52002H65.4423V28.6284H62.3377V3.52002Z" fill="#1B2035"/>
<path d="M92.6372 27.055L91.1179 27.1554V3.52002H94.1235V28.6284H90.1271L71.2682 4.99305L72.7874 4.89261V28.6284H69.7819V3.52002H73.8113L92.6372 27.055Z" fill="#1B2035"/>
<path d="M121.304 27.055L119.785 27.1554V3.52002H122.791V28.6284H118.794L99.9354 4.99305L101.455 4.89261V28.6284H98.4491V3.52002H102.479L121.304 27.055Z" fill="#1B2035"/>
<path d="M127.116 3.52002H130.221V28.6284H127.116V3.52002Z" fill="#1B2035"/>
<path d="M137.104 22.4016V19.7233H154.542V22.4016H137.104ZM147.772 3.52002L159.959 28.6284H156.59L145.129 4.59131H146.781L135.287 28.6284H131.918L144.106 3.52002H147.772Z" fill="#1B2035"/>
<path d="M10.9386 11.7915L19.3035 3.27539H27.6684V11.7915L19.3035 20.3077V11.7915H10.9386Z" fill="#1B2035"/>
<path d="M19.3035 20.3077H27.6684V28.8238H19.3035V20.3077Z" fill="#1B2035"/>
<path d="M10.9386 11.7915L2.57373 20.3077V28.8238H10.9386L19.3035 20.3077H10.9386V11.7915Z" fill="#1B2035"/>
<path d="M10.9386 11.7915H2.57373V3.27539H10.9386V11.7915Z" fill="#1B2035"/>
</svg>
